<svg xmlns="http://www.w3.org/2000/svg" xmlns:xlink="http://www.w3.org/1999/xlink" width="500" zoomAndPan="magnify" viewBox="0 0 375 374.999991" height="500" preserveAspectRatio="xMidYMid meet" version="1.0"><defs><g/><clipPath id="b38f7d9ad2"><path d="M 92.351562 96.019531 L 173 96.019531 L 173 202 L 92.351562 202 Z M 92.351562 96.019531 " clip-rule="nonzero"/></clipPath><clipPath id="7f6057e0dd"><path d="M 94 187 L 187.601562 187 L 187.601562 211.519531 L 94 211.519531 Z M 94 187 " clip-rule="nonzero"/></clipPath></defs><g clip-path="url(#b38f7d9ad2)"><path fill="#000000" d="M 96.878906 194.117188 C 98.539062 190.6875 99.972656 186.148438 100.75 182.007812 C 100.9375 181.019531 100.546875 180.027344 99.746094 179.4375 C 98.832031 178.742188 97.519531 177.949219 96.074219 177.722656 C 96.074219 177.722656 97.9375 176.703125 100.265625 177.695312 C 96.542969 175.058594 97.613281 155.941406 104.511719 143.980469 C 104.488281 145 104.472656 145.976562 104.445312 146.996094 C 106.199219 141.328125 110.019531 136.265625 115.070312 132.875 C 112.792969 136.414062 111.546875 140.566406 111.503906 144.746094 C 112.589844 139.855469 114.667969 135.019531 118.191406 131.347656 C 126.425781 122.761719 140.425781 122.054688 149.828125 114.699219 C 149.667969 115.703125 148.972656 120.273438 148.808594 121.277344 C 150.605469 115.90625 159.070312 111.710938 162.675781 107.265625 C 162.605469 108.390625 162.527344 109.515625 162.488281 110.640625 C 163.144531 107.8125 165.6875 105.804688 167.898438 103.808594 C 170.09375 101.800781 172.210938 99.082031 171.570312 96.253906 C 173.457031 103.285156 169.988281 111.351562 165.914062 117.191406 C 162.78125 121.679688 152.09375 125.335938 146.601562 124.425781 C 147.726562 124.652344 154.476562 125.386719 155.589844 125.617188 C 146.265625 125.816406 128.234375 177.640625 106.523438 178.511719 C 110.207031 178.566406 113.191406 181.96875 113.191406 181.96875 C 113.191406 181.96875 107.472656 179.933594 105.007812 180.199219 C 104.394531 180.253906 110.488281 155.070312 133.847656 131.242188 C 108.933594 152.835938 103.359375 181.582031 103.171875 182.144531 C 101.164062 188.734375 98.902344 195.457031 94.65625 200.871094 C 94.066406 201.621094 92.699219 202.277344 92.378906 201.40625 C 94.144531 199.101562 95.671875 196.675781 96.90625 194.117188 Z M 96.878906 194.117188 " fill-opacity="1" fill-rule="evenodd"/></g><g clip-path="url(#7f6057e0dd)"><path fill="#000000" d="M 152.574219 190.929688 C 152.574219 188.035156 145.59375 187.433594 142.234375 187.433594 L 141.390625 187.433594 C 132.683594 187.433594 121.054688 190.355469 114.574219 192.738281 C 110.554688 194.210938 106.683594 195.523438 102.824219 197.050781 C 101.648438 197.519531 97.84375 199.0625 95.003906 200.332031 C 94.867188 200.507812 94.75 200.667969 94.613281 200.84375 C 94.535156 200.949219 94.425781 201.058594 94.320312 201.164062 C 95.335938 200.789062 96.382812 200.375 97.320312 200.050781 C 99.261719 199.410156 100.964844 198.886719 102.90625 198.230469 C 106.175781 197.132812 110.835938 195.589844 114.222656 194.882812 C 122.207031 193.207031 129.84375 190.636719 139.449219 190.636719 L 140.558594 190.636719 C 142.261719 190.636719 147.539062 190.863281 147.539062 192.175781 C 147.539062 193.570312 141.511719 197.695312 140.304688 198.914062 C 138.628906 200.601562 135.105469 204.472656 135.105469 207.539062 C 135.105469 210.488281 138.457031 210.246094 139.582031 211.035156 L 144.335938 211.035156 C 144.402344 210.996094 149.265625 210.042969 149.976562 209.832031 C 151.796875 209.28125 153.445312 208.664062 155.105469 208.117188 C 158.507812 207.003906 161.589844 205.421875 164.804688 204.136719 C 171.058594 201.621094 177.128906 197.867188 183.019531 194.976562 C 184.292969 194.347656 185.902344 193.515625 187.496094 192.644531 C 176.324219 195.539062 157.785156 206.992188 144.484375 206.992188 L 143.640625 206.992188 C 142.582031 206.992188 140.144531 206.46875 140.144531 205.597656 L 140.144531 205.183594 C 140.144531 202.167969 152.574219 195.269531 152.574219 190.929688 Z M 152.574219 190.929688 " fill-opacity="1" fill-rule="evenodd"/></g><g fill="#000000" fill-opacity="1"><g transform="translate(141.742745, 183.086575)"><g><path d="M 7.738281 -31.371094 C 7.261719 -31.796875 6.675781 -32.0625 6.042969 -32.0625 C 5.40625 -32.0625 4.824219 -31.796875 4.398438 -31.371094 C 3.921875 -30.894531 3.710938 -30.3125 3.710938 -29.675781 C 3.710938 -29.042969 3.921875 -28.457031 4.398438 -28.035156 C 4.824219 -27.558594 5.40625 -27.34375 6.042969 -27.34375 C 6.675781 -27.34375 7.261719 -27.558594 7.738281 -28.035156 C 8.160156 -28.457031 8.425781 -29.042969 8.425781 -29.675781 C 8.425781 -30.3125 8.160156 -30.894531 7.738281 -31.371094 Z M 7.949219 0 L 7.949219 -23.316406 L 4.238281 -23.316406 L 4.238281 0 Z M 7.949219 0 "/></g></g></g><g fill="#000000" fill-opacity="1"><g transform="translate(153.877967, 183.086575)"><g><path d="M 20.085938 0 L 23.792969 0 L 23.792969 -14.574219 C 23.792969 -17.277344 23.054688 -19.449219 21.675781 -21.09375 C 20.933594 -21.941406 20.085938 -22.574219 19.078125 -23.054688 C 18.019531 -23.53125 16.695312 -23.792969 15.050781 -23.792969 C 13.355469 -23.792969 11.925781 -23.316406 10.652344 -22.46875 C 9.433594 -21.675781 8.425781 -20.613281 7.683594 -19.289062 L 7.683594 -23.316406 L 3.976562 -23.316406 L 3.976562 0 L 7.683594 0 L 7.683594 -9.75 C 7.683594 -12.71875 8.214844 -15.050781 9.328125 -16.800781 C 9.964844 -17.753906 10.757812 -18.546875 11.765625 -19.183594 C 12.71875 -19.765625 14.042969 -20.085938 15.632812 -20.085938 C 17.222656 -20.085938 18.335938 -19.503906 19.023438 -18.441406 C 19.714844 -17.382812 20.085938 -16.058594 20.085938 -14.574219 Z M 20.085938 0 "/></g></g></g><g fill="#000000" fill-opacity="1"><g transform="translate(180.851003, 183.086575)"><g><path d="M 7.683594 0 L 7.683594 -11.183594 L 16.851562 0 L 21.78125 0 L 11.554688 -12.03125 L 21.144531 -23.371094 L 16.214844 -23.371094 L 7.683594 -12.824219 L 7.683594 -39.746094 L 3.976562 -39.746094 L 3.976562 0 Z M 7.683594 0 "/></g></g></g><g fill="#000000" fill-opacity="1"><g transform="translate(203.172428, 183.836575)"><g><path d="M 10.59375 0.53125 C 8.90625 0.53125 7.363281 0.367188 5.96875 0.046875 C 4.570312 -0.265625 3.128906 -0.757812 1.640625 -1.4375 L 2.21875 -7.046875 C 3.707031 -6.160156 5.097656 -5.5 6.390625 -5.0625 C 7.679688 -4.625 9.015625 -4.40625 10.390625 -4.40625 C 13.078125 -4.40625 14.421875 -5.285156 14.421875 -7.046875 C 14.421875 -8.003906 14.066406 -8.738281 13.359375 -9.25 C 12.648438 -9.757812 11.378906 -10.367188 9.546875 -11.078125 C 6.929688 -12.035156 5.003906 -13.125 3.765625 -14.34375 C 2.523438 -15.5625 1.90625 -17.210938 1.90625 -19.296875 C 1.90625 -21.585938 2.785156 -23.445312 4.546875 -24.875 C 6.316406 -26.3125 8.707031 -27.03125 11.71875 -27.03125 C 14.71875 -27.03125 17.453125 -26.34375 19.921875 -24.96875 L 19.34375 -19.34375 C 18 -20.257812 16.734375 -20.960938 15.546875 -21.453125 C 14.367188 -21.953125 13.125 -22.203125 11.8125 -22.203125 C 10.6875 -22.203125 9.8125 -21.972656 9.1875 -21.515625 C 8.570312 -21.054688 8.265625 -20.40625 8.265625 -19.5625 C 8.265625 -18.882812 8.445312 -18.332031 8.8125 -17.90625 C 9.1875 -17.488281 9.707031 -17.109375 10.375 -16.765625 C 11.050781 -16.429688 12.171875 -15.96875 13.734375 -15.375 C 16.304688 -14.382812 18.15625 -13.296875 19.28125 -12.109375 C 20.414062 -10.921875 20.984375 -9.335938 20.984375 -7.359375 C 20.984375 -4.859375 20.082031 -2.914062 18.28125 -1.53125 C 16.476562 -0.15625 13.914062 0.53125 10.59375 0.53125 Z M 10.59375 0.53125 "/></g></g></g><g fill="#000000" fill-opacity="1"><g transform="translate(225.588141, 183.836575)"><g><path d="M 3.078125 -37.09375 L 9.640625 -37.09375 L 9.640625 -30.53125 L 3.078125 -30.53125 Z M 3.078125 -26.5 L 9.640625 -26.5 L 9.640625 0 L 3.078125 0 Z M 3.078125 -26.5 "/></g></g></g><g fill="#000000" fill-opacity="1"><g transform="translate(238.30628, 183.836575)"><g><path d="M 27.234375 -39.75 L 27.234375 0 L 21.046875 0 L 20.9375 -1.703125 C 19.90625 -0.953125 18.832031 -0.390625 17.71875 -0.015625 C 16.613281 0.347656 15.300781 0.53125 13.78125 0.53125 C 11.195312 0.53125 8.976562 -0.0859375 7.125 -1.328125 C 5.269531 -2.566406 3.863281 -4.226562 2.90625 -6.3125 C 1.957031 -8.394531 1.484375 -10.691406 1.484375 -13.203125 C 1.484375 -15.703125 1.957031 -17.992188 2.90625 -20.078125 C 3.863281 -22.171875 5.269531 -23.832031 7.125 -25.0625 C 8.976562 -26.300781 11.195312 -26.921875 13.78125 -26.921875 C 16.363281 -26.921875 18.660156 -26.210938 20.671875 -24.796875 L 20.671875 -39.75 Z M 14.734375 -4.875 C 16.816406 -4.875 18.378906 -5.613281 19.421875 -7.09375 C 20.460938 -8.582031 20.984375 -10.617188 20.984375 -13.203125 C 20.984375 -15.773438 20.460938 -17.800781 19.421875 -19.28125 C 18.378906 -20.769531 16.816406 -21.515625 14.734375 -21.515625 C 12.679688 -21.515625 11.082031 -20.753906 9.9375 -19.234375 C 8.789062 -17.710938 8.21875 -15.703125 8.21875 -13.203125 C 8.21875 -10.691406 8.789062 -8.675781 9.9375 -7.15625 C 11.082031 -5.632812 12.679688 -4.875 14.734375 -4.875 Z M 14.734375 -4.875 "/></g></g></g><g fill="#000000" fill-opacity="1"><g transform="translate(268.564834, 183.836575)"><g><path d="M 15.84375 0.53125 C 12.769531 0.53125 10.144531 -0.09375 7.96875 -1.34375 C 5.800781 -2.601562 4.175781 -4.285156 3.09375 -6.390625 C 2.019531 -8.492188 1.484375 -10.832031 1.484375 -13.40625 C 1.484375 -15.882812 1.992188 -18.144531 3.015625 -20.1875 C 4.046875 -22.238281 5.53125 -23.875 7.46875 -25.09375 C 9.414062 -26.3125 11.734375 -26.921875 14.421875 -26.921875 C 16.890625 -26.921875 18.976562 -26.40625 20.6875 -25.375 C 22.40625 -24.351562 23.695312 -22.976562 24.5625 -21.25 C 25.425781 -19.519531 25.859375 -17.578125 25.859375 -15.421875 C 25.859375 -14.359375 25.71875 -13.15625 25.4375 -11.8125 L 8.328125 -11.8125 C 8.671875 -9.488281 9.582031 -7.75 11.0625 -6.59375 C 12.550781 -5.445312 14.34375 -4.875 16.4375 -4.875 C 19.289062 -4.875 21.9375 -5.597656 24.375 -7.046875 L 24.703125 -1.484375 C 23.566406 -0.878906 22.25 -0.390625 20.75 -0.015625 C 19.25 0.347656 17.613281 0.53125 15.84375 0.53125 Z M 19.1875 -16.265625 C 19.1875 -17.648438 18.796875 -18.867188 18.015625 -19.921875 C 17.242188 -20.984375 16.046875 -21.515625 14.421875 -21.515625 C 12.796875 -21.515625 11.488281 -21.035156 10.5 -20.078125 C 9.507812 -19.128906 8.835938 -17.859375 8.484375 -16.265625 Z M 19.1875 -16.265625 "/></g></g></g></svg>